<?xml version="1.0" encoding="UTF-8"?>
<svg version="1.1" viewBox="0 0 1600 1600" width="1280" height="1280" xmlns="http://www.w3.org/2000/svg">
<path transform="translate(0)" d="m0 0h1600v1600h-1600v-1600z" fill="#FDFDFD"/>
<path transform="translate(595 124)" d="m0 0c1.21 6.04e-4 2.43 0.00121 3.68 0.00183 37.2 0.0496 74.1 1.41 111 5.93 3.37 0.406 6.75 0.779 10.1 1.16 92.1 10.6 188 34.4 298 110 1.25 1.11 2.5 2.23 3.75 3.34 1.21 1.09 2.42 2.19 3.63 3.28 0.85 0.764 0.85 0.764 1.72 1.54 1.34 1.24 2.63 2.53 3.91 3.83v2h2c16.2 16.8 29 38.3 35.8 60.5 0.199 0.639 0.397 1.28 0.602 1.94 3.21 11.1 3.95 22.5 3.9 34 0.00481 1.92 0.00481 1.92 0.00972 3.87 0.00855 3.52 0.00483 7.03-0.00106 10.6-0.0042 3.84 0.00325 7.67 0.00915 11.5 0.00874 6.72 0.0101 13.4 0.0065 20.1-0.00532 9.99 7.99e-4 20 0.00908 30 0.0152 18.9 0.0169 37.7 0.0145 56.6-0.00183 14.6-7.23e-5 29.1 0.00422 43.7 6.02e-4 2.09 0.0012 4.19 0.0018 6.28 9.07e-4 3.15 0.00182 6.31 0.00273 9.46 0.00843 29.3 0.0128 58.6 0.00859 88-1.56e-4 1.1-3.13e-4 2.21-4.74e-4 3.35-8.06e-4 5.6-0.00165 11.2-0.00251 16.8-1.71e-4 1.11-3.42e-4 2.22-5.18e-4 3.37-3.47e-4 2.25-6.95e-4 4.5-0.00105 6.75-0.00536 35 0.00259 70 0.021 105 0.0207 39.3 0.0314 78.7 0.0274 118-3.95e-4 4.19-7.57e-4 8.38-0.0011 12.6-9.07e-5 1.03-1.81e-4 2.06-2.75e-4 3.13-0.00117 15.6 0.00549 31.2 0.0161 46.8 0.012 17.7 0.0136 35.5 0.00121 53.2-0.00665 9.93-0.00496 19.9 0.00859 29.8 0.00821 6.62 0.00559 13.2-0.00598 19.9-0.00629 3.78-0.00777 7.56 0.00386 11.3 0.0124 4.06 0.00176 8.13-0.0113 12.2 0.00731 1.18 0.0146 2.36 0.0221 3.58-0.0379 5.65-0.0765 9.99-3.4 14.8-2.38 2.08-2.38 2.08-5 3.81-0.866 0.584-1.73 1.17-2.62 1.77-6.18 3.69-13.4 3.13-20.4 2.42-7.54-2.48-13.3-6.95-17-14-0.984-3.17-1.14-6.07-1.16-9.38-0.00979-1.09-0.0196-2.18-0.0297-3.31-0.00576-1.19-0.0115-2.38-0.0174-3.61-0.0099-1.26-0.0198-2.52-0.03-3.81-0.027-3.45-0.048-6.9-0.068-10.3-0.0219-3.6-0.0493-7.21-0.0761-10.8-0.0499-6.82-0.0948-13.6-0.138-20.5-0.0494-7.77-0.104-15.5-0.16-23.3-0.114-16-0.221-32-0.323-47.9-3.07 1.02-4.2 2.12-6.4 4.38-9.2 9.36-19.7 16.4-30.6 23.6-0.791 0.52-1.58 1.04-2.4 1.58-71.1 46.4-157 69.3-240 81.1-2.06 0.292-4.12 0.589-6.17 0.887-17.7 2.52-35.5 4.15-53.3 5.61-1.04 0.0849-2.08 0.17-3.14 0.257-3.03 0.245-6.06 0.486-9.09 0.723-1.31 0.104-1.31 0.104-2.64 0.211-15.5 1.19-31 1.79-46.6 1.82-0.858 0.00283-1.72 0.00565-2.6 0.00857-4.56 0.0148-9.12 0.0242-13.7 0.0285-3.66 0.00434-7.33 0.0181-11 0.041-25.8 0.158-51.2-0.875-76.9-3.11-2.8-0.24-5.6-0.462-8.4-0.683-4.73-0.377-9.46-0.791-14.2-1.24-1.24-0.118-1.24-0.118-2.51-0.238-91.6-8.84-186-30.7-313-113-1.86-1.52-1.86-1.52-5.65-1.14-0.132 14.7-0.262 29.4-0.391 44.1-0.0599 6.83-0.12 13.7-0.182 20.5-0.0594 6.61-0.118 13.2-0.175 19.8-0.0219 2.5-0.0443 5-0.067 7.5-0.114 12.6-0.21 25.2-0.242 37.9-0.00741 1.53-0.00741 1.53-0.015 3.08-0.0288 25.9 8.46 47.6 25.1 67.2 0.427 0.506 0.853 1.01 1.29 1.53 55.8 65.4 156 90.5 243 105 0.786 0.135 1.57 0.269 2.38 0.408 26.8 4.56 53.6 7.37 80.6 9.36 3.14 0.239 6.28 0.503 9.41 0.768 20.2 1.64 40.4 1.86 60.6 1.84 2.79-0.00198 5.58 2.4e-5 8.37 0.00244 29.2 0.00941 58.2-0.981 87.3-3.77 15.7-1.47 15.7-1.47 21.3 2.39 7.22 6.91 12.1 13.2 12.6 23.4-0.221 6.81-2.29 11.4-6.62 16.6-8.23 7.64-22.3 7.69-32.9 8.62-1.25 0.121-2.5 0.242-3.78 0.367-18.4 1.71-36.9 2.18-55.4 2.21-1.01 0.00283-2.02 0.00565-3.07 0.00857-5.37 0.0149-10.7 0.0242-16.1 0.0285-4.34 0.00435-8.67 0.0181-13 0.041-28.1 0.145-55.8-0.588-83.7-3.28-1.25-0.118-2.5-0.237-3.79-0.359-7.35-0.709-14.7-1.52-22-2.39-1.08-0.127-2.15-0.253-3.26-0.384-37.2-4.4-73.6-11-110-19.9-1.27-0.309-2.54-0.618-3.85-0.937-40.2-9.92-79.3-24.3-116-43.1l-3.26-1.66c-24.1-12.4-46-27-66.7-44.3-1.11-0.905-1.11-0.905-2.24-1.83-1.63-1.34-3.2-2.75-4.76-4.17v-2c-0.595-0.266-1.19-0.533-1.8-0.807-2.25-1.22-3.63-2.43-5.37-4.28-0.578-0.614-1.16-1.23-1.75-1.86-0.603-0.656-1.21-1.31-1.83-1.99-0.625-0.678-1.25-1.36-1.9-2.05-4.91-5.39-9.37-10.9-13.4-17-0.354-0.54-0.707-1.08-1.07-1.64-13-20.1-21.6-41.5-22.5-65.4-0.0421-1.09-0.0843-2.17-0.128-3.29-0.461-13.1-0.459-26.1-0.446-39.2 0.00258-3.76-7.4e-4 -7.51-0.00324-11.3-0.00358-6.56-0.00352-13.1-9.53e-4 -19.7 0.00381-9.75 0.00184-19.5-0.00121-29.3-0.00525-17.4-0.00482-34.9-0.00192-52.3 0.00252-15.2 0.00317-30.5 0.00198-45.7-7.64e-5 -1.01-1.53e-4 -2.03-2.31e-4 -3.07-3.11e-4 -4.12-6.3e-4 -8.23-9.6e-4 -12.3-0.00305-38.6-2.92e-4 -77.1 0.0051-116 0.00475-34.2 0.00432-68.4-4.61e-4 -103-0.00536-38.5-0.00747-77-0.00439-116 3.21e-4 -4.11 6.34e-4 -8.22 9.43e-4 -12.3 7.91e-5 -1.01 1.58e-4 -2.02 2.4e-4 -3.06 0.00113-15.2-1.88e-4 -30.5-0.00272-45.7-0.00287-17.3-0.00213-34.7 0.00328-52 0.00293-9.69 0.00314-19.4-6.46e-4 -29.1-0.00226-6.49-8.22e-4 -13 0.0035-19.5 0.00236-3.68 0.00323-7.37-4.06e-4 -11.1-0.0118-13 0.0215-26.1 0.545-39.1 0.0346-0.912 0.0691-1.82 0.105-2.76 1.63-35 24.6-66.5 48.5-90.3 0.648-0.683 1.3-1.37 1.96-2.07 5.91-6.16 12.4-11.3 19.1-16.5 1.88-1.44 3.75-2.89 5.61-4.36 17.5-13.6 36.5-24.2 56.3-34.1 0.844-0.429 1.69-0.858 2.56-1.3 81.3-41.2 178-58.8 337-66.9z" fill="#000100"/>
<path transform="translate(672 176)" d="m0 0c2.76 0.222 5.52 0.435 8.28 0.646 50.8 3.94 101 11.9 151 25.6 0.978 0.266 1.96 0.532 2.96 0.806 67 18.3 144 49 181 111 9.53 17.2 11.5 36.2 7.17 55.2-3.55 11.4-9.74 21.5-17.2 30.8-0.675 0.878-1.35 1.76-2.05 2.66-9.35 11.9-19.7 21.8-32.2 30.2-1.67 1.13-3.32 2.29-4.96 3.46-54.8 38.8-122 59.3-188 71.7-0.719 0.137-1.44 0.275-2.18 0.416-38.8 7.38-78.2 12.4-118 14.4-2.24 0.12-4.48 0.265-6.72 0.429-16.7 1.18-33.4 0.943-50.1 0.931-0.825-2.67e-4 -1.65-5.34e-4 -2.5-8.09e-4 -37.2-0.0151-73.8-1.43-111-5.93-3.29-0.397-6.58-0.775-9.87-1.16-89.6-10.7-187-33.6-283-115-10.1-13.1-17.1-26.6-21.2-42.6-0.293-1.02-0.585-2.03-0.887-3.08-3.77-15.9 5.02-34.3 13.3-47.7 1.19-1.76 2.4-3.51 3.62-5.25 0.947-1.39 0.947-1.39 1.91-2.81 9.85-13.9 22.5-25.1 36.1-35.2 0.816-0.615 0.816-0.615 1.65-1.24 25.1-18.9 53.4-32.5 82.4-44 2.03-0.806 4.06-1.63 6.09-2.45 11.3-4.53 22.7-8.27 34.4-11.8 1.4-0.42 1.4-0.42 2.83-0.848 57.8-17.3 117-26 177-30.3 4.53-0.324 9.06-0.693 13.6-1.08 41.8-3.37 84.2-1.92 126 1.46z" fill="#FDFDFD"/>
<path transform="translate(174,703)" d="m0 0c4.97 0.249 7.66 3.03 11.1 6.25 7.62 6.78 15.8 12.5 24.3 18.1 1.7 1.12 3.39 2.24 5.08 3.38 74 49.5 166 72 311 89.1 2.11 0.178 4.22 0.359 6.34 0.543 3.29 0.286 6.57 0.565 9.86 0.84 0.839 0.0718 1.68 0.144 2.54 0.218 17.9 1.42 35.7 1.8 53.6 1.78 1.04-9.37e-4 2.08-0.00187 3.16-0.00284 19.7-0.0379 39.2-0.709 58.8-2.18 1.05-0.0778 2.09-0.156 3.17-0.236 32.5-2.43 64.7-5.43 96.8-10.8 0.893-0.147 1.79-0.294 2.7-0.445 34.3-5.66 67.5-13.4 101-23.6 0.927-0.285 1.85-0.571 2.81-0.865 18.7-5.79 36.9-12.6 54.9-20.5 0.952-0.416 0.952-0.416 1.92-0.841 4.32-1.89 8.64-3.8 13-5.72 0.937-0.414 1.87-0.828 2.84-1.25 18.8-8.34 36.4-19 53.2-30.7 0.732-0.511 1.46-1.02 2.22-1.55 8.38-5.87 16.6-11.7 23.9-18.8 1.85-1.61 1.85-1.61 4.85-2.61 1.76 1.76 1.13 4.28 1.13 6.67 0.00426 1.23 0.00853 2.46 0.0129 3.73-3.5e-4 1.38-8.11e-4 2.76-0.00137 4.13 0.00299 1.44 0.00639 2.88 0.0102 4.33 0.00887 3.93 0.0112 7.87 0.0118 11.8 7.1e-4 2.46 0.00284 4.92 0.0055 7.39 0.00927 8.6 0.0133 17.2 0.0125 25.8-5.98e-4 7.99 0.00989 16 0.0257 24 0.0131 6.87 0.0184 13.7 0.0178 20.6-2.53e-4 4.1 0.00251 8.2 0.0132 12.3 0.0098 3.87 0.00968 7.74 0.00248 11.6-0.00103 1.41 0.00123 2.81 0.00736 4.22 0.131 32.1-10.9 53.7-33 76.4-3.63 3.5-7.4 6.81-11.2 10.1l-2.13 1.83c-7.17 5.97-15 10.9-22.8 15.9-1.77 1.11-3.52 2.24-5.28 3.38-46.1 29.2-99.9 45.1-153 56.9-1.11 0.248-1.11 0.248-2.24 0.501-40.7 9.05-82 14.8-124 17.4-2.15 0.139-4.29 0.291-6.44 0.448-45.1 3.27-90.7 2.8-136-0.308-0.792-0.0533-1.58-0.107-2.4-0.161-20.5-1.38-40.8-3.35-61.2-6.34-3.28-0.481-6.55-0.942-9.83-1.4-47-6.74-94.6-17.6-139-35-2.63-1.03-5.26-2.04-7.9-3.05-26.2-10.1-52-22.7-74.9-39-1.53-1.09-1.53-1.09-3.09-2.2-25.8-18.9-51.7-44.2-57.5-77.1-1.23-8.84-1.67-17.4-1.56-26.4 0.00882-1.4 0.0167-2.8 0.0238-4.2 0.0216-3.75 0.0561-7.49 0.0935-11.2 0.0373-3.94 0.0632-7.87 0.0907-11.8 0.0477-6.59 0.103-13.2 0.165-19.8 0.0706-7.63 0.13-15.3 0.184-22.9 0.0572-8.14 0.122-16.3 0.189-24.4 0.0189-2.34 0.0363-4.69 0.0535-7.03 0.0273-3.67 0.0596-7.33 0.096-11 0.0186-1.99 0.0324-3.99 0.046-5.98 0.0127-1.17 0.0254-2.35 0.0384-3.56 0.00905-1.03 0.0181-2.05 0.0274-3.11 0.144-2.3 0.144-2.3 1.14-3.3z" fill="#FDFDFD"/>
<path transform="translate(174,452)" d="m0 0c4.4 1.43 7.37 3.83 10.8 6.88 7.02 6.12 14.5 11.5 22.2 16.7 1.92 1.31 3.82 2.64 5.72 3.98 9.79 6.79 20.1 12.4 30.7 18 2.46 1.31 4.9 2.65 7.34 4 21.4 11.8 44.3 20.5 67.4 28.4 1.07 0.372 2.13 0.744 3.23 1.13 66.6 23.3 137 33.9 207 39.1 0.902 0.0664 1.8 0.133 2.73 0.201 2.95 0.21 5.9 0.406 8.84 0.596 0.647 0.0422 1.29 0.0844 1.96 0.128 11.6 0.741 23.1 1.06 34.6 1.11 0.854 0.0048 1.71 0.00961 2.59 0.0146 6.48 0.0358 13 0.0515 19.4 0.0597 0.952 0.00159 1.9 0.00318 2.89 0.00483 24.8 0.0352 49.5-0.222 74.2-2.13 1.07-0.0828 2.15-0.166 3.25-0.251 22.7-1.81 45.3-4.31 67.8-7.75 0.844-0.128 1.69-0.256 2.56-0.389 38.7-5.9 77.4-13.9 115-25.8 0.943-0.296 1.89-0.591 2.86-0.896 46.4-14.6 93-34.9 132-64.1 1.06-0.772 2.12-1.54 3.21-2.34 5.59-4.12 10.9-8.38 16-13.1 1.84-1.53 1.84-1.53 4.84-2.53 1.77 1.77 1.13 4.32 1.13 6.71 0.00426 1.24 0.00853 2.48 0.0129 3.76-3.5e-4 1.39-8.11e-4 2.78-0.00137 4.17 0.00299 1.45 0.00639 2.91 0.0102 4.36 0.00887 3.96 0.0112 7.93 0.0118 11.9 7.1e-4 2.48 0.00284 4.96 0.0055 7.44 0.00927 8.67 0.0133 17.3 0.0125 26-5.98e-4 8.05 0.00989 16.1 0.0257 24.2 0.0131 6.93 0.0184 13.9 0.0178 20.8-2.54e-4 4.13 0.00251 8.26 0.0132 12.4 0.00979 3.9 0.00969 7.8 0.00248 11.7-0.00103 1.42 0.00124 2.84 0.00736 4.26 0.0924 22.9-4.72 39.9-18.3 58.4-0.648 0.893-1.3 1.79-1.96 2.71-26.9 35.2-70.9 57-111 73.3-1.05 0.43-2.1 0.859-3.18 1.3-32.4 13.2-66.1 22-100 29.3-1.22 0.265-2.45 0.53-3.71 0.803-23.5 4.94-47.1 8.49-70.9 11.3-1.91 0.226-1.91 0.226-3.87 0.456-20.7 2.42-41.3 4.14-62.1 4.86-2.52 0.107-5.04 0.217-7.56 0.328-30 1.26-60 0.71-90-0.253-2.29-0.0705-4.57-0.132-6.86-0.19-58.7-1.56-118-11.6-175-26.9-0.982-0.265-0.982-0.265-1.98-0.536-53.5-14.5-110-35.2-152-72.5-0.855-0.746-1.71-1.49-2.59-2.26-2.5-2.22-4.96-4.46-7.41-6.74-0.677-0.623-1.35-1.25-2.05-1.89-13.5-12.9-23.6-29.3-28.9-47.1-0.392-1.24-0.784-2.48-1.19-3.75-2.49-10.7-1.96-22.6-1.96-33.6-3e-3 -1.36-0.00641-2.72-0.0102-4.08-0.00871-3.64-0.0112-7.27-0.0118-10.9-7.16e-4 -2.28-0.00286-4.55-0.0055-6.83-0.0092-7.95-0.0133-15.9-0.0125-23.8 6.04e-4 -7.4-0.01-14.8-0.0257-22.2-0.013-6.37-0.0184-12.7-0.0178-19.1 2.55e-4 -3.8-0.0026-7.6-0.0132-11.4-0.00964-3.56-0.00979-7.12-0.00248-10.7 0.00155-1.93-0.00682-3.86-0.0154-5.8 0.00419-1.14 0.00839-2.28 0.0127-3.46-5.45e-4 -0.996-0.00109-1.99-0.00165-3.02 0.249-2.36 0.249-2.36 2.25-4.36z" fill="#FDFDFD"/>
<path transform="translate(1186 1145)" d="m0 0c20.8 17 33.7 40.7 37.4 67.2 0.095 2.47 0.139 4.95 0.147 7.42 0.00368 0.726 0.00735 1.45 0.0111 2.2 0.011 2.42 0.0149 4.84 0.0187 7.27 0.00627 1.74 0.0129 3.48 0.0199 5.23 0.021 5.71 0.0314 11.4 0.0414 17.1 0.00405 1.97 0.00817 3.94 0.0124 5.91 0.019 9.27 0.0333 18.5 0.0416 27.8 0.00976 10.7 0.0361 21.3 0.0765 32 0.0302 8.26 0.045 16.5 0.0483 24.8 0.00234 4.93 0.0112 9.86 0.0365 14.8 0.0234 4.64 0.0275 9.28 0.0172 13.9-4.92e-4 1.69 0.00573 3.39 0.0196 5.08 0.0813 10.6-0.935 19.4-4.49 29.4-0.276 0.791-0.552 1.58-0.837 2.4-0.698 1.91-1.46 3.79-2.23 5.67-0.486 1.21-0.972 2.42-1.47 3.66-1.31 2.92-2.75 5.58-4.46 8.28 0.866 0.639 1.73 1.28 2.62 1.94 5.2 4.3 10 10.8 10.8 17.6 0.499 9.13 0.0287 15.1-6.24 22.4-5.23 5.17-9.06 6.74-16.3 7.15-8.66-0.108-14.3-2.81-20.7-8.66-2.12-2.38-2.12-2.38-2.12-4.38-5.35 0.507-9.46 1.93-14.2 4.38-21.2 10.3-48.5 11-70.9 3.59-3.05-1.19-5.96-2.53-8.89-3.97-0.581-0.28-1.16-0.559-1.76-0.848-24-11.7-42.6-30.4-52.5-55.4-6.67-20.1-6.16-40.5-6.09-61.4 0.0115-4.39 0.0072-8.77 0.00525-13.2-8.78e-4 -7.36 0.0101-14.7 0.0286-22.1 0.0212-8.46 0.0247-16.9 0.0184-25.4-0.00573-8.2-1.19e-5 -16.4 0.0112-24.6 0.0046-3.46 0.00554-6.93 0.00341-10.4-0.00191-4.09 0.00639-8.18 0.0221-12.3 0.00419-1.49 0.00513-2.97 0.00231-4.46-0.0522-32.5 8.95-58.3 31.3-82 0.612-0.688 1.22-1.38 1.86-2.09 32.4-34.9 92.6-34.6 129-6.16z" fill="#000100"/>
<path transform="translate(874 1125)" d="m0 0c1.19-0.00773 2.38-0.0155 3.61-0.0234 25.4 0.0555 48.2 9.95 66.5 27.3 0.726 0.683 1.45 1.37 2.2 2.07 10.5 10.9 18.1 25.6 22.8 39.9 0.411 1.2 0.822 2.41 1.25 3.64 2.48 8.33 3.16 16.3 3.25 25 0.0185 1.03 0.0371 2.06 0.0562 3.13-0.0592 7.07-1.33 10.9-6.3 16.1-0.558 0.469-1.12 0.938-1.69 1.42-0.556 0.48-1.11 0.959-1.68 1.45-5.9 4.07-12 3.86-18.9 3.3-6.09-1.2-11.5-3.68-16-8-3.92-6.52-5.12-12.8-6.38-20.2-2.86-15.3-7.55-26.9-20.3-36.8-11.8-7.94-23.4-9.28-37.3-7.93-13.1 2.72-24.9 11.2-32.3 22.2-7.24 12.2-9.78 25.3-6.99 39.3 4.48 14.3 12.9 24.8 26 32 9.71 4.51 19.2 5.79 29.7 6.19 19.7 0.802 39.5 8.4 54.8 20.8 2.01 1.67 2.01 1.67 4.88 3.52v2c0.55 0.199 1.1 0.397 1.67 0.602 3.29 1.97 5.34 4.77 7.64 7.77 0.484 0.626 0.968 1.25 1.47 1.9 6.95 9.15 12.4 18.9 16.2 29.7 0.23 0.637 0.46 1.27 0.697 1.93 8.71 25 6.12 53.8-5.26 77.6-12.5 23.9-35.1 41.2-60.5 49.5-27.3 7.85-55.6 2.8-80-10.7-5.12-2.93-9.56-6.4-14-10.3-0.828-0.686-1.66-1.37-2.51-2.08-18.6-15.8-30.7-41.1-32.8-65.5-0.397-9.11 0.349-16 6.31-23.4 5.64-5.64 12.5-9.01 20.5-9.44 6.1 0.272 10.4 2.34 14.7 6.6 5.48 6.06 8.01 10.1 8.67 18.3 1.36 14 5.52 27.1 16.1 36.9 10.4 8.47 23.4 14.4 37 13.7 15-2.55 27.8-7.64 37.3-19.9 8.38-12.1 9.93-24.3 8.17-38.8-2.5-13.6-10.5-25.3-21.5-33.6-10.8-6.51-21.8-8-34.2-8.32-25.7-0.814-50-14.2-67.4-32.7-13.1-15.1-19.6-31.5-24.4-50.7-0.211-0.837-0.423-1.67-0.641-2.54-3.77-25.9 5.57-53.5 20.6-74.5 13.2-17.1 34-30.7 55-36 0.718-0.182 1.44-0.364 2.18-0.551 7.25-1.64 14.3-1.75 21.7-1.7z" fill="#000100"/>
<path transform="translate(1309 1126)" d="m0 0c5.79 3.59 11.3 8.26 13.4 15 0.49 2.39 0.573 4.58 0.581 7.02 0.00547 0.983 0.0109 1.97 0.0166 2.98 9.78e-4 1.08 0.00196 2.16 0.00296 3.27 0.00741 1.72 0.00741 1.72 0.015 3.48 0.0127 3.18 0.021 6.37 0.0274 9.55 0.00801 3.43 0.0217 6.87 0.0347 10.3 0.0218 5.95 0.0399 11.9 0.0556 17.8 0.0227 8.6 0.0508 17.2 0.0803 25.8 0.0477 14 0.0909 27.9 0.131 41.9 0.0394 13.6 0.0808 27.1 0.125 40.7 0.00272 0.835 0.00545 1.67 0.00826 2.53 0.0137 4.19 0.0274 8.38 0.0411 12.6 0.114 34.8 0.221 69.5 0.323 104 1.17 0.0103 2.33 0.0206 3.54 0.0312 11.2 0.099 22.3 0.202 33.5 0.308 5.73 0.0545 11.5 0.108 17.2 0.158 43.9 0.386 43.9 0.386 62 0.859 2.03 0.0523 4.07 0.097 6.1 0.141 14.1 0.421 14.1 0.421 18.8 4.17 6.58 7.87 8.44 13.9 8.18 24.2-0.587 6.35-2.71 11.6-7.29 16.1-5.76 3.43-10.8 4.12-17.4 4.16-1.3 0.0112-2.59 0.0225-3.93 0.034-1.43 0.0075-2.86 0.0149-4.29 0.0222-1.51 0.0112-3.02 0.0229-4.53 0.0349-4.1 0.0313-8.2 0.0564-12.3 0.0802-3.43 0.0205-6.86 0.044-10.3 0.0675-8.1 0.0556-16.2 0.106-24.3 0.154-8.34 0.049-16.7 0.105-25 0.165-7.17 0.0515-14.3 0.0988-21.5 0.143-4.28 0.0262-8.55 0.0539-12.8 0.0854-4.03 0.0294-8.05 0.0536-12.1 0.0739-1.47 0.00825-2.94 0.0183-4.41 0.0303-22.8 0.183-22.8 0.183-27.5-3.87-0.641-0.545-1.28-1.09-1.94-1.65-0.833-0.76-0.833-0.76-1.68-1.54-0.763-0.619-1.53-1.24-2.31-1.88-4.9-6.17-5.2-13.3-5.37-20.8-0.0331-1.14-0.0662-2.29-0.1-3.46-0.503-20.5-0.366-41-0.355-61.6 0.00257-6.39 1.72e-4 -12.8-0.00139-19.2-0.00193-11.4 0.00115-22.8 0.00626-34.3 0.00444-10.2 0.00371-20.5-9.19e-4 -30.7-0.00543-12-0.0073-24-0.00439-36 0.00153-6.31 0.00185-12.6-0.00154-18.9-0.0067-14.9 0.0197-29.8 0.115-44.8 0.0147-2.32 0.0284-4.63 0.0411-6.95 0.0402-7.04 0.103-14.1 0.198-21.1 0.0269-2.19 0.0473-4.37 0.0608-6.56 0.0203-3.01 0.0654-6.01 0.117-9.02 0.00122-1.31 0.00122-1.31 0.00246-2.65 0.157-6.69 1.96-11.8 6.17-17.1 8.13-6.78 18.4-11.1 28.6-6.16z" fill="#000100"/>
<path transform="translate(1156,1185)" d="m0 0c0.596 0.513 1.19 1.03 1.8 1.55 12.4 11.6 16.5 26 17.2 42.4 0.178 6.8 0.141 13.6 0.133 20.4 0.00102 2 0.00236 4 4e-3 5.99 0.00268 5.31-0.00173 10.6-0.00824 15.9-0.00357 3.28-0.00519 6.57-0.00626 9.85-0.014 34.6-0.303 69.2-1.12 104-5.05-0.364-7.51-3.03-10.8-6.54-0.546-0.559-1.09-1.12-1.66-1.69-1.75-1.79-3.48-3.59-5.21-5.39-13.1-15-13.1-15-30.9-21.8-6.74 0.0885-12.2 2.53-17.3 6.98-4.65 5.09-8.32 10.9-8.68 17.9 0.846 15 17.4 26.5 27.4 36 0.904 0.883 1.81 1.77 2.74 2.68 0.817 0.785 1.63 1.57 2.48 2.38 2.21 2.86 2.6 4.89 2.9 8.45-17.2 0.543-31.7-1.64-45.3-13.2-10.4-9.94-16.2-22.7-16.8-37.1-0.00297-1.14-0.00595-2.27-0.00901-3.44-0.00571-1.31-0.0114-2.63-0.0173-3.98-0.00125-1.44-0.00237-2.88-0.00339-4.32-0.00463-1.53-0.00966-3.06-0.015-4.59-0.0131-4.14-0.0196-8.28-0.024-12.4-0.00294-2.59-0.00705-5.18-0.0115-7.77-0.0137-8.12-0.0233-16.2-0.0272-24.4-0.00448-9.35-0.022-18.7-0.051-28-0.0217-7.24-0.0317-14.5-0.033-21.7-0.00104-4.32-0.00686-8.63-0.0248-13-0.0166-4.07-0.0186-8.13-0.00986-12.2 7.65e-4 -1.48-0.0035-2.97-0.0135-4.45-0.11-17.4 3.87-31.4 16-44.3 19.4-17.8 46.3-22.4 67.4-4.16z" fill="#FDFDFD"/>
<path transform="translate(306 829)" d="m0 0c9.64 6.69 14.5 15.3 16.8 26.7 1.11 9.24-0.213 19.6-5.69 27.3-1.07 1.26-2.17 2.49-3.31 3.69-0.882 0.942-0.882 0.942-1.78 1.9-6.98 6.77-14.6 9.28-24.3 9.54-12.5-0.422-21.6-4.67-30.2-13.7-7.22-8.69-8.9-17.7-7.96-28.8 1.22-8.98 5.38-17.1 12.3-23 14.2-10.6 28.8-12.9 44.2-3.72z" fill="#000100"/>
<path transform="translate(306,579)" d="m0 0c7.93 5.5 13.9 13 16.4 22.4 1.81 10.6 1.39 22.7-5 31.8-5.86 6.94-12.1 13.4-21.4 14.8-12.7 0.989-24 0.131-34.2-8.25-3.25-3.21-5.58-6.76-7.78-10.8-0.415-0.75-0.83-1.5-1.26-2.27-3.9-8.22-4.17-17.3-1.86-26.1 4.65-12.2 12.8-19.2 24.4-24.8 10.6-4.13 21-2.43 30.7 3.1z" fill="#000100"/>
<path transform="translate(308 1081)" d="m0 0c8.28 6.76 13.1 15 14.8 25.5 0.907 9.61-0.0398 19.3-5.75 27.3-5.82 7.01-13.1 13-22.2 14.7-12.1 0.878-22.5-0.391-32.2-8.32-8.82-8.06-12.9-15.9-13.5-28 0.254-9.23 3.44-17.5 8.75-25.1 14.1-12.6 33.7-17.3 50.1-6.06z" fill="#000100"/>
</svg>
